<?xml version="1.0" encoding="UTF-8"?>
<svg xmlns="http://www.w3.org/2000/svg" width="16" height="16" viewBox="0 0 16 16" fill="none">
  <path d="M12.3536 3.64645C12.5488 3.45118 12.5488 3.1346 12.3536 2.93934L12.1464 2.73223C11.9512 2.53697 11.6346 2.53697 11.4393 2.73223L8 6.17157L4.56066 2.73223C4.3654 2.53697 4.04882 2.53697 3.85355 2.73223L3.64645 2.93934C3.45118 3.1346 3.45118 3.45118 3.64645 3.64645L7.08579 7.08579L3.64645 10.5251C3.45118 10.7204 3.45118 11.037 3.64645 11.2322L3.85355 11.4393C4.04882 11.6346 4.3654 11.6346 4.56066 11.4393L8 8L11.4393 11.4393C11.6346 11.6346 11.9512 11.6346 12.1464 11.4393L12.3536 11.2322C12.5488 11.037 12.5488 10.7204 12.3536 10.5251L8.91421 7.08579L12.3536 3.64645Z" fill="rgba(0,0,0,0.48)"/>
</svg>
