<svg xmlns="http://www.w3.org/2000/svg" width="32" height="32" viewBox="0 0 32 32" fill="none">
  <g transform="translate(4.952 4.000) scale(0.600000)">
<g id="exp_exp_01_icon_profile_fill">
<path d="M18.4135 22.5C25.2835 22.5 30.0809 23.621 33.0853 26.5811C35.536 28.9955 36.5351 32.7134 36.8207 37.002C36.9307 38.6551 35.5703 40 33.9135 40H2.91346C1.25669 40 -0.10376 38.6551 0.0062338 37.002C0.291829 32.7135 1.29098 28.9955 3.74159 26.5811C6.74606 23.621 11.5434 22.5 18.4135 22.5Z" fill="#F6F6F6"/>
<path d="M18.4135 0C23.6602 0 27.9135 4.25329 27.9135 9.5C27.9135 14.7467 23.6602 19 18.4135 19C13.1668 19 8.91346 14.7467 8.91346 9.5C8.91346 4.25331 13.1668 3.14396e-05 18.4135 0Z" fill="#F6F6F6"/>
</g>
  </g>
</svg>