<svg xmlns="http://www.w3.org/2000/svg" width="32" height="32" viewBox="0 0 32 32" fill="none">
  <g transform="translate(4.000 4.137) scale(0.549676)">
<g id="exp_exp_01_icon_explore_fill">
<path d="M31 21.5C36.2467 21.5 40.5 25.7533 40.5 31C40.5 32.6398 40.0839 34.1821 39.3525 35.5283L43.6621 39.8379L40.3379 43.1621L36.1543 38.9785C34.6694 39.9398 32.9006 40.5 31 40.5C25.7533 40.5 21.5 36.2467 21.5 31C21.5 25.7533 25.7533 21.5 31 21.5ZM31 26.2002C28.349 26.2002 26.2002 28.349 26.2002 31C26.2002 33.651 28.349 35.7998 31 35.7998C33.651 35.7998 35.7998 33.651 35.7998 31C35.7998 28.349 33.651 26.2002 31 26.2002Z" fill="#F6F6F6"/>
<path d="M11.5996 22C13.8398 22 14.9608 21.9996 15.8164 22.4355C16.5689 22.819 17.181 23.4311 17.5645 24.1836C18.0004 25.0392 18 26.1602 18 28.4004V33.5996C18 35.8398 18.0004 36.9608 17.5645 37.8164C17.181 38.5689 16.5689 39.181 15.8164 39.5645C14.9608 40.0004 13.8398 40 11.5996 40H6.40039C4.16018 40 3.03924 40.0004 2.18359 39.5645C1.43109 39.181 0.819016 38.5689 0.435547 37.8164C-0.000427067 36.9608 1.6328e-09 35.8398 1.6328e-09 33.5996V28.4004C1.6328e-09 26.1602 -0.000427067 25.0392 0.435547 24.1836C0.819016 23.4311 1.43109 22.819 2.18359 22.4355C3.03924 21.9996 4.16018 22 6.40039 22H11.5996Z" fill="#F6F6F6"/>
<path d="M11.5996 1.6328e-09C13.8398 1.6328e-09 14.9608 -0.000427067 15.8164 0.435547C16.5689 0.819016 17.181 1.43109 17.5645 2.18359C18.0004 3.03924 18 4.16018 18 6.40039V11.5996C18 13.8398 18.0004 14.9608 17.5645 15.8164C17.181 16.5689 16.5689 17.181 15.8164 17.5645C14.9608 18.0004 13.8398 18 11.5996 18H6.40039C4.16018 18 3.03924 18.0004 2.18359 17.5645C1.43109 17.181 0.819016 16.5689 0.435547 15.8164C-0.000427067 14.9608 1.6328e-09 13.8398 1.6328e-09 11.5996V6.40039C1.6328e-09 4.16018 -0.000427067 3.03924 0.435547 2.18359C0.819016 1.43109 1.43109 0.819016 2.18359 0.435547C3.03924 -0.000427067 4.16018 1.6328e-09 6.40039 1.6328e-09H11.5996Z" fill="#F6F6F6"/>
<path d="M33.5996 1.6328e-09C35.8398 1.6328e-09 36.9608 -0.000427067 37.8164 0.435547C38.5689 0.819016 39.181 1.43109 39.5645 2.18359C40.0004 3.03924 40 4.16018 40 6.40039V11.5996C40 13.8398 40.0004 14.9608 39.5645 15.8164C39.181 16.5689 38.5689 17.181 37.8164 17.5645C36.9608 18.0004 35.8398 18 33.5996 18H28.4004C26.1602 18 25.0392 18.0004 24.1836 17.5645C23.4311 17.181 22.819 16.5689 22.4355 15.8164C21.9996 14.9608 22 13.8398 22 11.5996V6.40039C22 4.16018 21.9996 3.03924 22.4355 2.18359C22.819 1.43109 23.4311 0.819016 24.1836 0.435547C25.0392 -0.000427067 26.1602 1.6328e-09 28.4004 1.6328e-09H33.5996Z" fill="#F6F6F6"/>
</g>
  </g>
</svg>