<svg preserveAspectRatio="none" width="32" height="32" overflow="visible" style="display: block;" viewBox="0 0 32 32" fill="none" xmlns="http://www.w3.org/2000/svg">
<g id="Icon Frame">
<path id="Tint" d="M15.9998 18.333C20.2293 18.333 23.7761 21.2501 24.741 25.1816C24.8286 25.539 24.5814 25.8842 24.2186 25.9453L23.5604 26.0547C23.1973 26.1155 22.8569 25.8692 22.7615 25.5137C21.9609 22.53 19.2359 20.333 15.9998 20.333C12.7638 20.3331 10.0387 22.53 9.2381 25.5137C9.14269 25.8693 8.80239 26.1156 8.43927 26.0547L7.78205 25.9453C7.41903 25.8844 7.17105 25.5391 7.25861 25.1816C8.22356 21.2501 11.7704 18.3331 15.9998 18.333ZM15.9998 5.66699C19.1293 5.66699 21.6666 8.20354 21.6668 11.333C21.6668 14.4626 19.1294 17 15.9998 17C12.8703 16.9999 10.3328 14.4626 10.3328 11.333C10.333 8.20359 12.8704 5.66707 15.9998 5.66699ZM15.9998 7.66699C13.975 7.66707 12.333 9.30816 12.3328 11.333C12.3328 13.358 13.9748 14.9999 15.9998 15C18.0249 15 19.6668 13.3581 19.6668 11.333C19.6666 9.30811 18.0248 7.66699 15.9998 7.66699Z" fill="#FFFFFF" fill-opacity="0.6"/>
</g>
</svg>
