<svg xmlns="http://www.w3.org/2000/svg" width="32" height="32" viewBox="0 0 32 32" fill="none">
  <g transform="translate(4 5.25) scale(0.511)">
    <path d="M21.6787 0.275736C22.8492 -0.0919188 24.1049 -0.0919055 25.2754 0.275736C26.0571 0.521408 26.6989 0.946575 27.293 1.42808C27.8682 1.89439 28.517 2.51416 29.2695 3.23081L46.9541 20.0736L44.1953 22.9701L41.7871 20.6761V33.5365C41.7871 34.6235 41.7883 35.5592 41.7256 36.3265C41.661 37.1171 41.5184 37.9038 41.1328 38.6605C40.5576 39.7893 39.6396 40.7074 38.5107 41.2826C37.7542 41.6679 36.9672 41.8108 36.1768 41.8753C35.4096 41.938 34.4735 41.9369 33.3867 41.9369L13.5703 41.9359C12.4835 41.9359 11.5475 41.938 10.7803 41.8753C9.98976 41.8108 9.20289 41.668 8.44629 41.2826C7.31749 40.7074 6.39944 39.7893 5.82422 38.6605C5.43873 37.9039 5.29603 37.1171 5.23145 36.3265C5.16879 35.5592 5.16987 34.6226 5.16992 33.5355V20.6722L2.75781 22.9701L0 20.0736L17.6836 3.23081C18.4361 2.51416 19.0849 1.89443 19.6602 1.42808C20.2543 0.946477 20.8968 0.521445 21.6787 0.275736ZM24.0762 4.09214C23.686 3.96966 23.2671 3.96958 22.877 4.09214C22.7722 4.12517 22.5821 4.20931 22.1797 4.5355C21.7574 4.87781 21.2416 5.36711 20.4424 6.12828L9.16992 16.8617V33.5365C9.16987 34.6892 9.17152 35.4337 9.21777 36.0003C9.26211 36.5432 9.33731 36.7451 9.3877 36.8441C9.57936 37.2203 9.8856 37.5264 10.2617 37.7181C10.3606 37.7685 10.5628 37.8437 11.1055 37.888C11.6721 37.9343 12.4174 37.9359 13.5703 37.9359H21.4795V26.2572H25.4795V37.9369H33.3867C34.5396 37.9369 35.2849 37.9353 35.8516 37.889C36.3941 37.8447 36.5963 37.7685 36.6953 37.7181C37.0714 37.5264 37.3776 37.2202 37.5693 36.8441C37.6197 36.7451 37.6949 36.5434 37.7393 36.0013C37.7856 35.4347 37.7871 34.6895 37.7871 33.5365V16.8666L26.5107 6.12828C25.7117 5.36726 25.1966 4.87777 24.7744 4.5355C24.3713 4.20879 24.1808 4.12505 24.0762 4.09214Z" fill="white" fill-opacity="0.6"/>
  </g>
</svg>
