<svg xmlns="http://www.w3.org/2000/svg" width="24" height="24" viewBox="0 0 32 32" fill="none">
  <path fill="#F6F6F6" d="M15.366 5.226C15.734 4.924 16.265 4.924 16.633 5.226l10.735 8.801c.326.268.45.712.308 1.11-.142.397-.52.662-.942.662h-1.554l-.795 8.686c-.078.858-.798 1.515-1.659 1.515h-5.059a.667.667 0 0 1-.666-.666v-6.457a.667.667 0 0 0-.667-.667h-.667a.667.667 0 0 0-.667.667v6.457a.667.667 0 0 1-.666.666H9.275c-.862 0-1.581-.657-1.66-1.515l-.795-8.686H5.266c-.422 0-.8-.265-.942-.662-.142-.398-.018-.842.308-1.11L15.366 5.226Z"/>
</svg>
