<svg xmlns="http://www.w3.org/2000/svg" width="24" height="24" viewBox="0 0 32 32" fill="none">
  <path fill="#99FFFFFF" d="M24.335 6A1.67 1.67 0 0 1 26.002 7.662l.037 14c.002.922-.745 1.671-1.667 1.671h-4.899l-2.183 2.67a1.33 1.33 0 0 1-2.08 0l-2.184-2.67H7.628c-.922 0-1.669-.749-1.666-1.671l.036-14A1.67 1.67 0 0 1 7.665 6h16.67Zm-16.372 15.333h5.51l2.527 3.088 2.526-3.088h5.512l-.035-13.333H7.998v13.333Zm11.37-7.333a.667.667 0 0 1 .667.667v.666a.667.667 0 0 1-.667.667h-6.666a.667.667 0 0 1-.667-.667v-.666a.667.667 0 0 1 .667-.667h6.666Z"/>
</svg>
