<svg xmlns="http://www.w3.org/2000/svg" width="24" height="24" viewBox="0 0 32 32" fill="none">
  <path fill="#99FFFFFF" d="M21.3 16.814a4 4 0 1 1 0 8 3.99 3.99 0 0 1-3.596-2.112l-1.454 1.454a.667.667 0 0 1-.942-.942l1.451-1.451A3.987 3.987 0 0 1 21.3 16.814ZM13 17a2 2 0 0 1 2 2v5a2 2 0 0 1-2 2H8a2 2 0 0 1-2-2v-5a2 2 0 0 1 2-2h5Zm-5 7h5v-5H8v5Zm13-11a2 2 0 0 1 2 2v5a2 2 0 0 1-2 2h-5a2 2 0 0 1-2-2V8a2 2 0 0 1 2-2h5Zm-5 7h5V8h-5v5ZM13 6a2 2 0 0 1 2 2v5a2 2 0 0 1-2 2H8a2 2 0 0 1-2-2V8a2 2 0 0 1 2-2h5Zm-5 7h5V8H8v5Z"/>
</svg>
