<svg preserveAspectRatio="none" width="100%" height="100%" overflow="visible" style="display: block;" viewBox="0 0 28 20" fill="none" xmlns="http://www.w3.org/2000/svg">
  <g id="Follow Button">
    <rect width="28" height="20" rx="10" fill="var(--fill-0, #FE2C55)"/>
    <path id="Plus" d="M14 5C14.5523 5 15 5.44772 15 6V9H18C18.5523 9 19 9.44772 19 10C19 10.5523 18.5523 11 18 11H15V14C15 14.5523 14.5523 15 14 15C13.4477 15 13 14.5523 13 14V11H10C9.44772 11 9 10.5523 9 10C9 9.44772 9.44772 9 10 9H13V6C13 5.44772 13.4477 5 14 5Z" fill="var(--fill-0, white)"/>
  </g>
</svg>
