<svg xmlns="http://www.w3.org/2000/svg" width="43" height="28" viewBox="0 0 43 28" fill="none">
  <path fill="#FA2D6C" fill-rule="evenodd" d="M7.5 12.8C7.5 8.32 7.5 6.08 8.372 4.368 9.139 2.863 10.363 1.639 11.868.872 13.579 0 15.82 0 20.3 0h9.9c4.48 0 6.72 0 8.432.872 1.505.767 2.729 1.991 3.496 3.496C42.999 6.08 43 8.32 43 12.8v2.4c0 4.48 0 6.72-.872 8.432-.767 1.505-1.991 2.729-3.496 3.496-1.711.872-3.952.872-8.432.872h-9.9c-4.48 0-6.72 0-8.432-.872-1.505-.767-2.729-1.991-3.496-3.496C7.5 21.92 7.5 19.68 7.5 15.2V12.8Z"/>
  <path fill="#20D5EC" fill-rule="evenodd" d="M0 12.8C0 8.32 0 6.08.872 4.368 1.639 2.863 2.863 1.639 4.368.872 6.08 0 8.32 0 12.8 0h9.9c4.48 0 6.72 0 8.432.872 1.505.767 2.729 1.991 3.496 3.496C35.5 6.08 35.5 8.32 35.5 12.8v2.4c0 4.48 0 6.72-.872 8.432-.767 1.505-1.991 2.729-3.496 3.496-1.711.872-3.952.872-8.432.872H12.8c-4.48 0-6.72 0-8.432-.872C2.863 25.137 1.639 23.913.872 22.408 0 20.696 0 18.456 0 14V12.8Z"/>
  <path fill="#FAFAFA" d="M11.5 0h20c4.4 0 8 3.582 8 8v12c0 4.418-3.6 8-8 8h-20C7.1 28 3.5 24.418 3.5 20V8C3.5 3.582 7.1 0 11.5 0Z"/>
  <path fill="#000" d="M22 7.5a.5.5 0 0 1 .5.5v4.75h4.75a.5.5 0 0 1 .5.5v1.5a.5.5 0 0 1-.5.5H22.5V20a.5.5 0 0 1-.5.5h-1.5a.5.5 0 0 1-.5-.5v-5.25H15.25a.5.5 0 0 1-.5-.5v-1.5a.5.5 0 0 1 .5-.5H20V8a.5.5 0 0 1 .5-.5H22Z"/>
</svg>
