<svg preserveAspectRatio="xMidYMid meet" width="100%" height="100%" overflow="visible" style="display: block;" viewBox="0 0 32 32" fill="none" xmlns="http://www.w3.org/2000/svg">
<g id="Icon Frame">
<path id="Tint" d="M15.3658 5.22628C15.7343 4.9244 16.2648 4.9244 16.6334 5.22628L27.3677 14.0271C27.694 14.2949 27.8173 14.7389 27.6753 15.1364C27.5331 15.5343 27.1555 15.7995 26.733 15.7995H25.1792L24.3843 24.4851C24.3058 25.343 23.5866 25.9996 22.7251 25.9997H17.6666C17.2985 25.9997 16.9998 25.7017 16.9996 25.3337V18.8767C16.9995 18.5087 16.7015 18.2108 16.3335 18.2107H15.6666C15.2984 18.2107 14.9997 18.5086 14.9996 18.8767V25.3337C14.9994 25.7016 14.7015 25.9995 14.3335 25.9997H9.27495C8.41338 25.9997 7.69428 25.3431 7.61577 24.4851L6.82085 15.7995H5.26616C4.84371 15.7995 4.46699 15.5342 4.32476 15.1364C4.18262 14.7387 4.30577 14.2949 4.63237 14.0271L15.3658 5.22628Z" fill="var(--fill-0, #F6F6F6)"/>
</g>
</svg>
