<svg preserveAspectRatio="xMidYMid meet" width="100%" height="100%" overflow="visible" style="display: block;" viewBox="0 0 32 32" fill="none" xmlns="http://www.w3.org/2000/svg">
<g id="Icon Frame">
<path id="Tint" d="M15.3653 5.22645C15.734 4.92422 16.2652 4.92422 16.6339 5.22645L27.3673 14.0263C27.694 14.2941 27.8171 14.7388 27.6749 15.1366C27.5327 15.5344 27.1559 15.7996 26.7335 15.7997H25.1788L24.3849 24.4852C24.3063 25.3433 23.5863 25.9999 22.7247 25.9999H9.27548C8.41386 25.9999 7.69385 25.3433 7.61532 24.4852L6.8204 15.7997H5.26571C4.84341 15.7995 4.46649 15.5343 4.32431 15.1366C4.18214 14.7388 4.30524 14.2941 4.63192 14.0263L15.3653 5.22645ZM8.06356 13.7997H8.64559L9.57919 23.9999H14.9991V18.8759C14.9991 18.5077 15.298 18.2089 15.6661 18.2089H16.3331C16.7012 18.209 16.9991 18.5078 16.9991 18.8759V23.9999H22.421L23.3536 13.7997H23.9366L15.9991 7.29286L8.06356 13.7997Z" fill="var(--fill-0, black)" fill-opacity="0.48"/>
</g>
</svg>
