<svg preserveAspectRatio="xMidYMid meet" width="100%" height="100%" overflow="visible" style="display: block;" viewBox="0 0 32 32" fill="none" xmlns="http://www.w3.org/2000/svg">
<g id="Icon Frame">
<path id="Tint" d="M15.9998 18.333C20.2293 18.333 23.7761 21.2501 24.7411 25.1816C24.8287 25.5391 24.5807 25.8844 24.2176 25.9453L23.5604 26.0547C23.1973 26.1155 22.857 25.8692 22.7616 25.5137C21.9609 22.53 19.2359 20.333 15.9998 20.333C12.7638 20.3331 10.0388 22.53 9.23813 25.5137C9.14272 25.8693 8.80242 26.1156 8.4393 26.0547L7.78208 25.9453C7.41906 25.8844 7.17108 25.5391 7.25864 25.1816C8.22359 21.2501 11.7705 18.3331 15.9998 18.333ZM15.9998 5.66699C19.1294 5.66699 21.6667 8.20354 21.6668 11.333C21.6668 14.4626 19.1295 17 15.9998 17C12.8703 16.9999 10.3329 14.4626 10.3329 11.333C10.333 8.20358 12.8704 5.66706 15.9998 5.66699ZM15.9998 7.66699C13.975 7.66706 12.333 9.30815 12.3329 11.333C12.3329 13.358 13.9749 14.9999 15.9998 15C18.0249 15 19.6668 13.3581 19.6668 11.333C19.6667 9.30811 18.0248 7.66699 15.9998 7.66699Z" fill="var(--fill-0, black)" fill-opacity="0.48"/>
</g>
</svg>
