<svg preserveAspectRatio="xMidYMid meet" width="100%" height="100%" overflow="visible" style="display: block;" viewBox="0 0 32 32" fill="none" xmlns="http://www.w3.org/2000/svg">
<g id="Icon Frame">
<path id="Tint" d="M24.3349 6C25.2536 6 25.9993 6.74343 26.0018 7.66211L26.039 21.6621C26.0414 22.5843 25.2942 23.333 24.372 23.333H19.4735L17.2899 26.0029C16.623 26.8176 15.3766 26.8178 14.7099 26.0029L12.5263 23.333H7.62782C6.70579 23.3328 5.95938 22.5842 5.9618 21.6621L5.99794 7.66211C6.00045 6.74346 6.74626 6.00004 7.66493 6H24.3349ZM12.6669 14C12.2987 14 11.9999 14.2988 11.9999 14.667V15.333C11.9999 15.7012 12.2987 16 12.6669 16H19.3329C19.7011 16 19.9999 15.7012 19.9999 15.333V14.667C19.9999 14.2988 19.7011 14 19.3329 14H12.6669Z" fill="var(--fill-0, black)"/>
</g>
</svg>
