<svg preserveAspectRatio="xMidYMid meet" width="100%" height="100%" overflow="visible" style="display: block;" viewBox="0 0 32 32" fill="none" xmlns="http://www.w3.org/2000/svg">
<g id="Icon Frame">
<path id="Tint" d="M21.2997 16.8135C23.785 16.8135 25.7997 18.8282 25.7997 21.3135C25.7997 22.1905 25.5491 23.0092 25.1151 23.7012L26.5692 25.1553C26.8292 25.4156 26.8294 25.8374 26.5692 26.0977L26.0976 26.5693C25.8373 26.8294 25.4155 26.8293 25.1552 26.5693L23.704 25.1182C23.0086 25.5585 22.1837 25.8135 21.2997 25.8135C18.8146 25.8134 16.7998 23.7986 16.7997 21.3135C16.7997 18.8282 18.8145 16.8136 21.2997 16.8135ZM12.9999 17C14.1045 17 14.9999 17.8954 14.9999 19V24C14.9999 25.1046 14.1045 26 12.9999 26H7.9999C6.89533 26 5.9999 25.1046 5.9999 24V19C5.9999 17.8954 6.89533 17 7.9999 17H12.9999ZM7.9999 24H12.9999V19H7.9999V24ZM21.2997 18.8135C19.9191 18.8136 18.7997 19.9328 18.7997 21.3135C18.7998 22.6941 19.9191 23.8134 21.2997 23.8135C22.6804 23.8135 23.7996 22.6941 23.7997 21.3135C23.7997 19.9328 22.6804 18.8135 21.2997 18.8135ZM12.9999 6C14.1045 6 14.9999 6.89543 14.9999 8V13C14.9999 14.1046 14.1045 15 12.9999 15H7.9999C6.89533 15 5.9999 14.1046 5.9999 13V8C5.9999 6.89543 6.89533 6 7.9999 6H12.9999ZM23.9999 6C25.1045 6 25.9999 6.89543 25.9999 8V13C25.9999 14.1046 25.1045 15 23.9999 15H18.9999C17.8953 15 16.9999 14.1046 16.9999 13V8C16.9999 6.89543 17.8953 6 18.9999 6H23.9999ZM7.9999 13H12.9999V8H7.9999V13ZM18.9999 8V13H23.9999V8H18.9999Z" fill="var(--fill-0, black)" fill-opacity="0.48"/>
</g>
</svg>
