<svg preserveAspectRatio="xMidYMid meet" width="100%" height="100%" overflow="visible" style="display: block;" viewBox="0 0 21.9248 19.25" fill="none" xmlns="http://www.w3.org/2000/svg">
<g id="story_camera_rounded">
<path d="M10.95 5.5C11.5909 5.5 11.5012 7.57655 12.5395 8.61055C13.5735 9.64882 15.65 9.55909 15.65 10.2C15.65 10.8409 13.5735 10.7512 12.5395 11.7895C11.5012 12.8235 11.5909 14.9 10.95 14.9C10.3091 14.9 10.3988 12.8235 9.36054 11.7895C8.32654 10.7512 6.25 10.8409 6.25 10.2C6.25 9.55909 8.32654 9.64882 9.36054 8.61055C10.3988 7.57655 10.3091 5.5 10.95 5.5Z" fill="#ffffff"/>
<path d="M7.69824 0.61522C8.76529 0.165437 9.89283 -0.00230284 10.9624 2.38377e-05C12.032 -0.00230284 13.1595 0.165437 14.2266 0.61522C15.4257 1.12065 15.9802 1.96539 16.3702 2.55953L16.3733 2.56428C16.7751 3.17634 16.9426 3.39157 17.3114 3.50185C17.4261 3.53614 17.5474 3.57028 17.6735 3.60577C18.3304 3.7907 19.1166 4.01204 19.7706 4.48009C20.6339 5.09794 21.2088 6.05878 21.5834 7.56279C21.588 7.5814 21.5921 7.60014 21.5957 7.61899C22.0731 10.1484 21.9969 12.676 21.5869 14.436C21.3137 15.609 20.8791 16.5456 20.1959 17.274C19.5127 18.0024 18.6576 18.4406 17.6914 18.7494C16.7906 19.0373 15.6916 19.1549 14.5648 19.2075C13.5726 19.2537 12.4925 19.2513 11.4253 19.249C11.2706 19.2486 11.1162 19.2483 10.9624 19.2481C10.8086 19.2483 10.6542 19.2486 10.4996 19.249C9.43233 19.2513 8.3522 19.2537 7.36008 19.2075C6.23319 19.1549 5.13426 19.0373 4.23346 18.7494C3.26727 18.4406 2.41212 18.0024 1.72896 17.274C1.04576 16.5456 0.611135 15.609 0.337909 14.436C-0.0720668 12.676 -0.148275 10.1484 0.329189 7.61899C0.332746 7.60014 0.336845 7.5814 0.341481 7.56279C0.716088 6.05878 1.29091 5.09794 2.15422 4.48009C2.80822 4.01204 3.59447 3.7907 4.25136 3.60577C4.37742 3.57028 4.49871 3.53614 4.6134 3.50185C4.98221 3.39157 5.14971 3.17634 5.55149 2.56428L5.55462 2.55952C5.94464 1.96539 6.49916 1.12065 7.69824 0.61522ZM10.968 17.2481C11.1239 17.2483 11.2789 17.2486 11.4329 17.249C12.506 17.2513 13.5322 17.2534 14.4716 17.2096C15.5566 17.1591 16.4405 17.0495 17.0825 16.8444C17.8543 16.5976 18.3653 16.3023 18.7371 15.9058C19.109 15.5093 19.4183 14.9299 19.6391 13.9823C19.9774 12.5301 20.0618 10.2981 19.6357 8.01856C19.3301 6.80766 18.9477 6.35055 18.6066 6.10649C18.2608 5.85896 17.8766 5.74816 17.2366 5.5636C17.0857 5.52009 16.9206 5.47248 16.7385 5.41802C15.6319 5.08713 15.1066 4.28247 14.7501 3.73627C14.7335 3.71088 14.7173 3.68604 14.7014 3.66184C14.3322 3.09937 14.0565 2.71394 13.4498 2.45818C12.6832 2.13507 11.8337 1.99859 10.9711 2.00001L10.9538 2.00006C10.0911 1.99864 9.24164 2.13507 8.47508 2.45818C7.86834 2.71394 7.59266 3.09937 7.22343 3.66184C7.20754 3.68604 7.19133 3.71088 7.17475 3.73627C6.81822 4.28247 6.29297 5.08713 5.18636 5.41802C5.00421 5.47248 4.83912 5.52009 4.68825 5.5636C4.04828 5.74816 3.66406 5.85896 3.31819 6.10649C2.97717 6.35055 2.59473 6.80766 2.28911 8.01856C1.86301 10.2981 1.94749 12.5301 2.28576 13.9823C2.5065 14.9299 2.81588 15.5093 3.18771 15.9058C3.55959 16.3023 4.0705 16.5976 4.84239 16.8444C5.48431 17.0495 6.36822 17.1591 7.4532 17.2096C8.39267 17.2534 9.4188 17.2513 10.4919 17.249C10.646 17.2486 10.8009 17.2483 10.9568 17.2481L10.9608 17.2481H10.9637C10.9638 17.2481 10.9635 17.2481 10.9637 17.2481L10.968 17.2481Z" fill="#ffffff"/>
</g>
</svg>
