<svg preserveAspectRatio="xMidYMid meet" width="100%" height="100%" overflow="visible" style="display: block;" viewBox="0 0 25.0833 21.8167" fill="none" xmlns="http://www.w3.org/2000/svg">
<path id="Subtract" fill-rule="evenodd" clip-rule="evenodd" d="M22.7526 5.04799C23.7517 5.75682 24.2957 6.74232 24.7282 8.46359C24.7339 8.486 24.7388 8.50856 24.7432 8.53125C25.3016 11.464 25.0769 13.7368 24.7485 16.1915C24.4173 18.6665 22.7311 20.7052 20.1918 21.1642C19.4692 21.3683 18.2451 21.5244 16.9414 21.6328C15.5548 21.7481 13.9579 21.8183 12.5123 21.8166C11.0665 21.8183 9.48404 21.7481 8.11154 21.6327C6.82027 21.5242 5.61184 21.368 4.89143 21.1641C2.3522 20.7051 0.665985 18.6665 0.334862 16.1915C0.00644846 13.7368 -0.21829 11.464 0.340175 8.53125C0.344497 8.50856 0.349475 8.486 0.355104 8.46359C0.787589 6.74232 1.33159 5.75682 2.33073 5.04799C2.87384 4.66269 3.74816 4.48538 4.47618 4.33775C4.75843 4.28051 5.0187 4.22773 5.22915 4.16901C5.88259 3.98671 6.10919 3.61095 6.41874 3.09764C6.49314 2.97426 6.57233 2.84295 6.66339 2.70446C6.69827 2.65141 6.73381 2.59645 6.77033 2.53997L6.77038 2.53989C7.21159 1.85756 7.79632 0.953263 9.10522 0.504861C11.5092 -0.168287 13.5742 -0.168287 16.0076 0.504861C17.4249 0.990416 18.1105 2.01045 18.5669 2.70446C18.6761 2.87059 18.7648 3.02843 18.8474 3.17545C19.1099 3.64256 19.3111 4.00057 19.9149 4.16901C20.121 4.22651 20.3703 4.27831 20.6392 4.33419C21.3531 4.48254 22.2051 4.65958 22.7526 5.04799ZM15.75 11.9583C15.75 13.7302 14.3136 15.1667 12.5417 15.1667C10.7698 15.1667 9.33333 13.7302 9.33333 11.9583C9.33333 10.1864 10.7698 8.75 12.5417 8.75C14.3136 8.75 15.75 10.1864 15.75 11.9583ZM18.375 11.9583C18.375 15.18 15.7633 17.7917 12.5417 17.7917C9.32001 17.7917 6.70833 15.18 6.70833 11.9583C6.70833 8.73667 9.32001 6.125 12.5417 6.125C15.7633 6.125 18.375 8.73667 18.375 11.9583Z" fill="var(--fill-0, white)"/>
</svg>
