<svg preserveAspectRatio="xMidYMid meet" width="100%" height="100%" overflow="visible" style="display: block;" viewBox="0 0 24 24" fill="none" xmlns="http://www.w3.org/2000/svg">
<g id="Icon Frame - 24pt">
<path id="&#240;&#159;&#142;&#168;icon_fill -------hack" d="M5.09286 18.0929C4.8976 17.8977 4.8976 17.5811 5.09286 17.3858L10.4792 11.9995L5.09286 6.6132C4.8976 6.41794 4.8976 6.10135 5.09286 5.90609L5.90603 5.09292C6.10129 4.89766 6.41788 4.89766 6.61314 5.09292L11.9994 10.4792L17.3858 5.09292C17.581 4.89766 17.8976 4.89766 18.0929 5.09292L18.1393 5.1394C18.1416 5.14156 18.1438 5.14374 18.146 5.14594L18.8531 5.85305C18.8553 5.85525 18.8575 5.85747 18.8596 5.8597L18.906 5.90609C19.1013 6.10135 19.1013 6.41794 18.906 6.6132L13.5197 11.9995L18.906 17.3858C19.1013 17.5811 19.1013 17.8977 18.906 18.0929L18.8592 18.1398C18.8572 18.1418 18.8552 18.1439 18.8531 18.1459L18.146 18.8531C18.144 18.8551 18.1419 18.8571 18.1398 18.8591L18.0929 18.9061C17.8976 19.1014 17.581 19.1014 17.3858 18.9061L11.9994 13.5198L6.61314 18.9061C6.41788 19.1014 6.10129 19.1014 5.90603 18.9061L5.09286 18.0929Z" fill="#ffffff"/>
</g>
</svg>
